<svg width="11" height="13" viewBox="0 0 11 13" fill="none" xmlns="http://www.w3.org/2000/svg">
<path d="M5.66797 12.8662C5.61296 12.8662 5.54736 12.8556 5.47119 12.8345C5.39502 12.8175 5.31462 12.7879 5.22998 12.7456C4.33708 12.2505 3.58171 11.8083 2.96387 11.4189C2.34603 11.0339 1.8488 10.6593 1.47217 10.2954C1.09554 9.92725 0.822591 9.52946 0.65332 9.10205C0.484049 8.67464 0.399414 8.17741 0.399414 7.61035V2.8877C0.399414 2.5153 0.47347 2.24235 0.621582 2.06885C0.769694 1.89535 0.99821 1.74512 1.30713 1.61816C1.44678 1.56315 1.63932 1.4891 1.88477 1.396C2.13444 1.29867 2.40951 1.19499 2.70996 1.08496C3.01465 0.974935 3.31722 0.867025 3.61768 0.76123C3.92236 0.651204 4.19743 0.553874 4.44287 0.469238C4.69255 0.384603 4.88509 0.31901 5.02051 0.272461C5.1263 0.242839 5.23421 0.217448 5.34424 0.196289C5.45426 0.17513 5.56217 0.164551 5.66797 0.164551C5.77799 0.164551 5.88802 0.17513 5.99805 0.196289C6.1123 0.217448 6.22233 0.242839 6.32812 0.272461C6.46354 0.31901 6.65397 0.384603 6.89941 0.469238C7.14486 0.553874 7.41781 0.651204 7.71826 0.76123C8.02295 0.871257 8.32552 0.981283 8.62598 1.09131C8.93066 1.1971 9.20573 1.29655 9.45117 1.38965C9.70085 1.48275 9.89551 1.55892 10.0352 1.61816C10.3483 1.74512 10.5768 1.89535 10.7207 2.06885C10.8688 2.24235 10.9429 2.5153 10.9429 2.8877V7.61035C10.9429 8.17741 10.8604 8.67887 10.6953 9.11475C10.5303 9.54639 10.2616 9.95052 9.88916 10.3271C9.51676 10.7038 9.02165 11.0825 8.40381 11.4634C7.78597 11.8485 7.02214 12.2759 6.1123 12.7456C6.02767 12.7879 5.94727 12.8175 5.87109 12.8345C5.79492 12.8556 5.72721 12.8662 5.66797 12.8662ZM5.67432 7.3374C6.05094 7.3374 6.24349 7.14062 6.25195 6.74707L6.35352 3.56055C6.36198 3.36589 6.30062 3.20719 6.16943 3.08447C6.03825 2.95752 5.87109 2.89404 5.66797 2.89404C5.46061 2.89404 5.29346 2.95752 5.1665 3.08447C5.03955 3.20719 4.98031 3.36377 4.98877 3.5542L5.07764 6.75342C5.09033 7.14274 5.28923 7.3374 5.67432 7.3374ZM5.67432 9.521C5.8859 9.521 6.06787 9.45329 6.22021 9.31787C6.37256 9.18245 6.44873 9.00895 6.44873 8.79736C6.44873 8.59001 6.37256 8.4165 6.22021 8.27686C6.06787 8.13721 5.8859 8.06738 5.67432 8.06738C5.4585 8.06738 5.27441 8.13721 5.12207 8.27686C4.96973 8.4165 4.89355 8.59001 4.89355 8.79736C4.89355 9.00895 4.96973 9.18245 5.12207 9.31787C5.27865 9.45329 5.46273 9.521 5.67432 9.521Z" fill="#393939"/>
</svg>
